<?xml version="1.0" encoding="UTF-8"?>
<svg id="Layer_1" xmlns="http://www.w3.org/2000/svg" version="1.1" viewBox="0 0 80.95 73.12">
  <!-- Generator: Adobe Illustrator 29.4.0, SVG Export Plug-In . SVG Version: 2.1.0 Build 152)  -->
  <defs>
    <style>
      .st0 {
        fill: none;
        stroke: #000;
        stroke-miterlimit: 10;
      }

      .st1, .st2, .st3 {
        isolation: isolate;
      }

      .st1, .st3 {
        font-family: AtemicaSansPERSONALUSE-Italic, 'Atemica Sans PERSONAL USE';
        font-size: 50px;
        font-style: italic;
      }

      .st1, .st4 {
        fill: #2c2c2e;
      }

      .st5 {
        fill: #fff;
      }

      .st6 {
        fill: #231f20;
      }

      .st7, .st3 {
        fill: #d53e3e;
      }
    </style>
  </defs>
  <g>
    <g class="st2">
      <g class="st2">
        <text class="st1" transform="translate(40.48 -15.44)"><tspan x="0" y="0">Goon</tspan></text>
      </g>
      <g class="st2">
        <text class="st3" transform="translate(171.93 -15.44)"><tspan x="0" y="0">R</tspan></text>
      </g>
      <g class="st2">
        <text class="st3" transform="translate(207.88 -15.44)"><tspan x="0" y="0">unner</tspan></text>
      </g>
    </g>
    <g>
      <polygon class="st7" points="141.42 -88.03 128.89 -58.44 159.22 -46.09 164.55 -46.09 194.87 -58.44 183.8 -88.03 141.42 -88.03"/>
      <path d="M202.35-89.71c0,8.34-26.23,15.93-40.47,15.93-12.86,0-40.47-7.58-40.47-15.93,0-5.24,7.82-9.86,18.67-12.56-.07.88-.11,1.41-.1,1.41l-.67,9.58c0,1.32.95,2.46,2.26,2.69l12.37,2.15c5.25.92,10.62.92,15.87,0l12.38-2.15c1.31-.23,2.26-1.36,2.26-2.69l-.76-10.33-.05-.65c10.83,2.71,18.71,7.32,18.71,12.55h0Z"/>
      <path class="st4" d="M184.43-96.92v10.33c0,1.32-.95,2.46-2.26,2.69l-12.38,2.15c-5.25.92-10.61.92-15.87,0l-12.37-2.15c-1.31-.23-2.26-1.36-2.26-2.69v-9.58s.04-.53.1-1.41c6.43-1.6,14.15-2.54,22.47-2.54s16.08.94,22.52,2.55l.05.65h0Z"/>
      <path d="M184.38-97.56c-6.44-1.61-14.18-2.55-22.52-2.55s-16.04.93-22.47,2.54c.33-4.28,1.33-16.84,1.33-16.84,6.33-3.02,12.99-4.75,21.88-4.75,8.21,0,14.29,1.55,20.39,4.17l1.38,17.44h0Z"/>
      <g>
        <g>
          <ellipse class="st5" cx="151.16" cy="-69.47" rx="7.08" ry="3.22"/>
          <ellipse class="st5" cx="172.6" cy="-69.47" rx="7.08" ry="3.22"/>
        </g>
        <g>
          <ellipse class="st6" cx="149.87" cy="-65.87" rx="7.93" ry="3.6"/>
          <ellipse class="st6" cx="173.9" cy="-65.87" rx="7.93" ry="3.6"/>
          <line class="st0" x1="151.03" y1="-65.87" x2="166.55" y2="-65.87"/>
        </g>
        <path class="st0" d="M136.18-79.42l5.43,12.87c.2.41.62.68,1.09.68h3.37"/>
        <path class="st0" d="M187.6-79.42l-5.43,12.87c-.2.41-.62.68-1.09.68h-3.37"/>
      </g>
    </g>
  </g>
  <g>
    <g class="st2">
      <g class="st2">
        <text class="st1" transform="translate(40.48 -130.17)"><tspan x="0" y="0">Goon</tspan></text>
      </g>
      <g class="st2">
        <text class="st3" transform="translate(171.93 -130.17)"><tspan x="0" y="0">R</tspan></text>
      </g>
      <g class="st2">
        <text class="st3" transform="translate(207.88 -130.17)"><tspan x="0" y="0">unner</tspan></text>
      </g>
    </g>
    <g>
      <polygon class="st7" points="141.42 -202.76 128.89 -173.17 159.22 -160.82 164.55 -160.82 194.87 -173.17 183.8 -202.76 141.42 -202.76"/>
      <path d="M202.35-204.44c0,8.34-26.23,15.93-40.47,15.93-12.86,0-40.47-7.58-40.47-15.93,0-5.24,7.82-9.86,18.67-12.56-.07.88-.11,1.41-.1,1.41l-.67,9.58c0,1.32.95,2.46,2.26,2.69l12.37,2.15c5.25.92,10.62.92,15.87,0l12.38-2.15c1.31-.23,2.26-1.36,2.26-2.69l-.76-10.33-.05-.65c10.83,2.71,18.71,7.32,18.71,12.55h0Z"/>
      <path class="st4" d="M184.43-211.65v10.33c0,1.32-.95,2.46-2.26,2.69l-12.38,2.15c-5.25.92-10.61.92-15.87,0l-12.37-2.15c-1.31-.23-2.26-1.36-2.26-2.69v-9.58s.04-.53.1-1.41c6.43-1.6,14.15-2.54,22.47-2.54s16.08.94,22.52,2.55l.05.65h0Z"/>
      <path d="M184.38-212.3c-6.44-1.61-14.18-2.55-22.52-2.55s-16.04.93-22.47,2.54c.33-4.28,1.33-16.84,1.33-16.84,6.33-3.02,12.99-4.75,21.88-4.75,8.21,0,14.29,1.55,20.39,4.17l1.38,17.44h0Z"/>
      <g>
        <ellipse class="st5" cx="151.16" cy="-184.21" rx="7.08" ry="3.22"/>
        <ellipse class="st5" cx="172.6" cy="-184.21" rx="7.08" ry="3.22"/>
      </g>
    </g>
  </g>
  <g>
    <g>
      <g>
        <polygon class="st7" points="20.01 31.17 7.49 60.76 37.82 73.11 43.14 73.11 73.47 60.76 62.39 31.17 20.01 31.17"/>
        <path d="M80.95,29.49c0,8.34-26.23,15.92-40.47,15.92C27.62,45.41,0,37.83,0,29.49,0,24.3,7.66,19.72,18.35,17.01c.41-5.31.97-12.23.97-12.23C25.65,1.76,32.31.02,41.19.02c8.21,0,14.3,1.55,20.4,4.17l1.02,12.85c10.63,2.72,18.34,7.28,18.34,12.45h0Z"/>
        <path class="st4" d="M63.02,22.28v10.33c0,1.32-.95,2.46-2.26,2.69l-12.38,2.15c-5.25.92-10.61.92-15.87,0l-12.37-2.15c-1.31-.23-2.26-1.36-2.26-2.69v-9.58s.04-.53.1-1.41c6.43-1.6,14.15-2.54,22.47-2.54s16.08.94,22.52,2.55l.05.65h0Z"/>
      </g>
      <g>
        <path class="st5" d="M37.29,51.9s-5.31,2.6-11.24,1.71-10.24-4.94-10.24-4.94c0,0,5.31-2.6,11.24-1.71,5.93.89,10.24,4.94,10.24,4.94Z"/>
        <path class="st5" d="M42.62,51.9s5.54,2.57,11.76,1.63c6.22-.93,10.76-5.02,10.76-5.02,0,0-5.54-2.57-11.76-1.63s-10.76,5.02-10.76,5.02Z"/>
      </g>
    </g>
    <g>
      <g>
        <ellipse cx="28.45" cy="53.35" rx="7.93" ry="3.6"/>
        <ellipse cx="52.49" cy="53.35" rx="7.93" ry="3.6"/>
        <line class="st0" x1="29.62" y1="53.35" x2="45.13" y2="53.35"/>
      </g>
      <path class="st0" d="M14.76,39.81l5.43,12.87c.2.41.62.68,1.09.68h3.37"/>
      <path class="st0" d="M66.19,39.81l-5.43,12.87c-.2.41-.62.68-1.09.68h-3.37"/>
    </g>
  </g>
  <g>
    <g class="st2">
      <g class="st2">
        <text class="st1" transform="translate(80.95 155.24)"><tspan x="0" y="0">Goon</tspan></text>
      </g>
      <g class="st2">
        <text class="st3" transform="translate(212.4 155.24)"><tspan x="0" y="0">R</tspan></text>
      </g>
      <g class="st2">
        <text class="st3" transform="translate(248.35 155.24)"><tspan x="0" y="0">unner</tspan></text>
      </g>
    </g>
    <g>
      <g>
        <polygon class="st7" points="20.01 118.72 7.49 148.31 37.82 160.66 43.14 160.66 73.47 148.31 62.39 118.72 20.01 118.72"/>
        <path d="M80.95,117.04c0,8.34-26.23,15.93-40.47,15.93C27.62,132.97,0,125.39,0,117.04c0-5.24,7.82-9.86,18.67-12.56-.07.88-.11,1.41-.1,1.41l-.67,9.58c0,1.32.95,2.46,2.26,2.69l12.37,2.15c5.25.92,10.62.92,15.87,0l12.38-2.15c1.31-.23,2.26-1.36,2.26-2.69l-.76-10.33-.05-.65c10.83,2.71,18.71,7.32,18.71,12.55h0Z"/>
        <path class="st4" d="M63.02,109.83v10.33c0,1.32-.95,2.46-2.26,2.69l-12.38,2.15c-5.25.92-10.61.92-15.87,0l-12.37-2.15c-1.31-.23-2.26-1.36-2.26-2.69v-9.58s.04-.53.1-1.41c6.43-1.6,14.15-2.54,22.47-2.54s16.08.94,22.52,2.55l.05.65h0Z"/>
        <path d="M62.97,109.19c-6.44-1.61-14.18-2.55-22.52-2.55s-16.04.93-22.47,2.54c.33-4.28,1.33-16.84,1.33-16.84,6.33-3.02,12.99-4.75,21.88-4.75,8.21,0,14.29,1.55,20.39,4.17l1.38,17.44h0Z"/>
      </g>
      <g>
        <path class="st5" d="M37.29,139.45s-5.31,2.6-11.24,1.71-10.24-4.94-10.24-4.94c0,0,5.31-2.6,11.24-1.71,5.93.89,10.24,4.94,10.24,4.94Z"/>
        <path class="st5" d="M42.62,139.45s5.54,2.57,11.76,1.63c6.22-.93,10.76-5.02,10.76-5.02,0,0-5.54-2.57-11.76-1.63s-10.76,5.02-10.76,5.02Z"/>
      </g>
    </g>
  </g>
</svg>