<svg id="Layer_1" xmlns="http://www.w3.org/2000/svg" version="1.1" viewBox="98.4 472.23 396.57 73.12">
  <!-- Generator: Adobe Illustrator 29.4.0, SVG Export Plug-In . SVG Version: 2.1.0 Build 152)  -->
  <defs>
    <style>
      .st0 {
        fill: none;
        stroke: #000;
        stroke-miterlimit: 10;
      }

      .st1 {
        fill: #231f20;
      }

      .st2 {
        fill: #d53e3e;
      }

      .st3 {
        font-family: AtemicaSansPERSONALUSE-Italic, 'Atemica Sans PERSONAL USE';
        font-size: 50px;
        font-style: italic;
      }

      .st4 {
        fill: #fff;
      }

      .st5 {
        display: none;
      }

      .st6 {
        fill: #2c2c2e;
      }
    </style>
  </defs>
  <g class="st5">
    <text class="st3" transform="translate(138.88 456.79)"><tspan class="st6" x="0" y="0">Goon</tspan><tspan class="st2" x="131.45" y="0">R</tspan><tspan class="st2" x="167.4" y="0">unner</tspan></text>
    <g>
      <polygon class="st2" points="239.82 384.2 227.29 413.79 257.62 426.14 262.95 426.14 293.27 413.79 282.2 384.2 239.82 384.2"/>
      <path d="M300.75,382.52c0,8.34-26.23,15.93-40.47,15.93-12.86,0-40.47-7.58-40.47-15.93,0-5.24,7.82-9.86,18.67-12.56-.07.88-.11,1.41-.1,1.41l-.67,9.58c0,1.32.95,2.46,2.26,2.69l12.37,2.15c5.25.92,10.62.92,15.87,0l12.38-2.15c1.31-.23,2.26-1.36,2.26-2.69l-.76-10.33-.05-.65c10.83,2.71,18.71,7.32,18.71,12.55Z"/>
      <path class="st6" d="M282.83,375.31v10.33c0,1.32-.95,2.46-2.26,2.69l-12.38,2.15c-5.25.92-10.61.92-15.87,0l-12.37-2.15c-1.31-.23-2.26-1.36-2.26-2.69v-9.58s.04-.53.1-1.41c6.43-1.6,14.15-2.54,22.47-2.54s16.08.94,22.52,2.55l.05.65Z"/>
      <path d="M282.78,374.67c-6.44-1.61-14.18-2.55-22.52-2.55s-16.04.93-22.47,2.54c.33-4.28,1.33-16.84,1.33-16.84,6.33-3.02,12.99-4.75,21.88-4.75,8.21,0,14.29,1.55,20.39,4.17l1.38,17.44Z"/>
      <g>
        <g>
          <ellipse class="st4" cx="249.56" cy="402.76" rx="7.08" ry="3.22"/>
          <ellipse class="st4" cx="271" cy="402.76" rx="7.08" ry="3.22"/>
        </g>
        <g>
          <ellipse class="st1" cx="248.27" cy="406.36" rx="7.93" ry="3.6"/>
          <ellipse class="st1" cx="272.3" cy="406.36" rx="7.93" ry="3.6"/>
          <line class="st0" x1="249.43" y1="406.36" x2="264.95" y2="406.36"/>
        </g>
        <path class="st0" d="M234.58,392.81l5.43,12.87c.2.41.62.68,1.09.68h3.37"/>
        <path class="st0" d="M286,392.81l-5.43,12.87c-.2.41-.62.68-1.09.68h-3.37"/>
      </g>
    </g>
  </g>
  <g class="st5">
    <text class="st3" transform="translate(138.88 342.06)"><tspan class="st6" x="0" y="0">Goon</tspan><tspan class="st2" x="131.45" y="0">R</tspan><tspan class="st2" x="167.4" y="0">unner</tspan></text>
    <g>
      <polygon class="st2" points="239.82 269.47 227.29 299.06 257.62 311.41 262.95 311.41 293.27 299.06 282.2 269.47 239.82 269.47"/>
      <path d="M300.75,267.79c0,8.34-26.23,15.93-40.47,15.93-12.86,0-40.47-7.58-40.47-15.93,0-5.24,7.82-9.86,18.67-12.56-.07.88-.11,1.41-.1,1.41l-.67,9.58c0,1.32.95,2.46,2.26,2.69l12.37,2.15c5.25.92,10.62.92,15.87,0l12.38-2.15c1.31-.23,2.26-1.36,2.26-2.69l-.76-10.33-.05-.65c10.83,2.71,18.71,7.32,18.71,12.55Z"/>
      <path class="st6" d="M282.83,260.58v10.33c0,1.32-.95,2.46-2.26,2.69l-12.38,2.15c-5.25.92-10.61.92-15.87,0l-12.37-2.15c-1.31-.23-2.26-1.36-2.26-2.69v-9.58s.04-.53.1-1.41c6.43-1.6,14.15-2.54,22.47-2.54s16.08.94,22.52,2.55l.05.65Z"/>
      <path d="M282.78,259.93c-6.44-1.61-14.18-2.55-22.52-2.55s-16.04.93-22.47,2.54c.33-4.28,1.33-16.84,1.33-16.84,6.33-3.02,12.99-4.75,21.88-4.75,8.21,0,14.29,1.55,20.39,4.17l1.38,17.44Z"/>
      <g>
        <ellipse class="st4" cx="249.56" cy="288.02" rx="7.08" ry="3.22"/>
        <ellipse class="st4" cx="271" cy="288.02" rx="7.08" ry="3.22"/>
      </g>
    </g>
  </g>
  <g>
    <g>
      <path class="st6" d="M206.3,534.52h-.75c-1.55,3.5-5.9,5.9-10.75,5.9-8.6,0-14.25-7.4-13.15-17.55,1.1-10.7,8.95-18.45,20.2-18.45,8.05,0,13,3.95,13.95,11.2l-7.6,1.7c-.65-4.1-3.1-6.1-7.4-6.1-6.7,0-10.95,4.7-11.65,11.5-.75,6.85,2.55,11.2,8.75,11.2,4.45,0,8.7-2.3,9.25-7.5l.05-.2h-13.8l.6-6h21.1l-2.05,19.7h-7.3l.55-5.4Z"/>
      <path class="st6" d="M234.45,514.42c8.1,0,13.2,5.6,12.4,13-.8,7.4-7,13-15.1,13s-13.2-5.6-12.4-13c.8-7.4,7-13,15.1-13ZM232.35,534.32c4.05,0,6.95-2.9,7.35-6.9.45-4.1-1.9-6.9-5.85-6.9s-6.95,2.9-7.35,6.9c-.4,4,1.85,6.9,5.85,6.9Z"/>
      <path class="st6" d="M264.95,514.42c8.1,0,13.2,5.6,12.4,13-.8,7.4-7,13-15.1,13s-13.2-5.6-12.4-13c.8-7.4,7-13,15.1-13ZM262.85,534.32c4.05,0,6.95-2.9,7.35-6.9.45-4.1-1.9-6.9-5.85-6.9s-6.95,2.9-7.35,6.9c-.4,4,1.85,6.9,5.85,6.9Z"/>
      <path class="st6" d="M290.14,514.92l-.4,3.95h.65c2.4-2.95,5.65-4.45,9.5-4.45,6.05,0,9.1,3.85,8.45,10.35l-1.6,15.15h-7l1.45-14c.35-3.45-1.5-5.4-5.25-5.4-4,0-6.6,2.15-7,5.75l-1.4,13.65h-7l2.6-25h7Z"/>
      <path class="st2" d="M320.24,539.92h-7.25l3.65-35h17.7c7.45,0,11.7,4.2,11,10.85-.5,4.95-4.05,8.6-9.65,9.85l-.1.75,9.35,13.55h-9.15l-9.05-13.2h-5.15l-1.35,13.2ZM322.29,520.42h9.7c3.45,0,5.55-1.65,5.85-4.6.35-2.95-1.45-4.65-4.95-4.65h-9.65l-.95,9.25Z"/>
      <path class="st2" d="M367.44,539.92l.4-3.95h-.7c-2.4,2.95-5.65,4.45-9.45,4.45-6.1,0-9.15-3.85-8.5-10.3l1.65-15.2h7l-1.5,14c-.4,3.5,1.5,5.4,5.25,5.4,4,0,6.65-2.15,7.05-5.75l1.35-13.65h7l-2.6,25h-6.95Z"/>
      <path class="st2" d="M390.04,514.92l-.4,3.95h.65c2.4-2.95,5.65-4.45,9.5-4.45,6.05,0,9.1,3.85,8.45,10.35l-1.6,15.15h-7l1.45-14c.35-3.45-1.5-5.4-5.25-5.4-4,0-6.6,2.15-7,5.75l-1.4,13.65h-7l2.6-25h7Z"/>
      <path class="st2" d="M421.99,514.92l-.4,3.95h.65c2.4-2.95,5.65-4.45,9.5-4.45,6.05,0,9.1,3.85,8.45,10.35l-1.6,15.15h-7l1.45-14c.35-3.45-1.5-5.4-5.25-5.4-4,0-6.6,2.15-7,5.75l-1.4,13.65h-7l2.6-25h7Z"/>
      <path class="st2" d="M458.44,534.42c2.2,0,4.45-.6,6.5-2.05l2.95,4.65c-2.45,2.15-6.65,3.4-10.85,3.4-8.5,0-13.7-5.1-12.85-13,.8-7.75,6.85-13.1,15.15-13.1,7.25,0,11.25,4.1,10.5,11l-.4,4.05h-18.3c.6,3.05,3.35,5.05,7.3,5.05ZM458.54,520.17c-3.2,0-5.8,1.7-6.8,4.45h11.9c.2-2.7-1.85-4.45-5.1-4.45Z"/>
      <path class="st2" d="M481.99,514.92l-.45,4.45h.65c1.15-3.1,3.55-4.45,8-4.45h4.75l-1,9.6h-6.75l.35-3.5h-1.2c-3.2,0-5.15,1.75-5.5,4.75l-1.45,14.15h-7l2.6-25h7Z"/>
    </g>
    <g>
      <g>
        <g>
          <polygon class="st2" points="118.41 503.4 105.89 532.99 136.22 545.34 141.54 545.34 171.87 532.99 160.79 503.4 118.41 503.4"/>
          <path d="M179.35,501.72c0,8.34-26.23,15.92-40.47,15.92-12.86,0-40.47-7.58-40.47-15.92,0-5.19,7.65-9.77,18.34-12.48.41-5.31.97-12.23.97-12.23,6.33-3.02,12.99-4.76,21.87-4.76,8.21,0,14.3,1.55,20.4,4.17l1.02,12.85c10.63,2.72,18.34,7.28,18.34,12.45Z"/>
          <path class="st6" d="M161.42,494.51v10.33c0,1.32-.95,2.46-2.26,2.69l-12.38,2.15c-5.25.92-10.61.92-15.87,0l-12.37-2.15c-1.31-.23-2.26-1.36-2.26-2.69v-9.58s.04-.53.1-1.41c6.43-1.6,14.15-2.54,22.47-2.54s16.08.94,22.52,2.55l.05.65Z"/>
        </g>
        <g>
          <path class="st4" d="M135.69,524.13s-5.31,2.6-11.24,1.71c-5.93-.89-10.24-4.94-10.24-4.94,0,0,5.31-2.6,11.24-1.71s10.24,4.94,10.24,4.94Z"/>
          <path class="st4" d="M141.02,524.13s5.54,2.57,11.76,1.63c6.22-.93,10.76-5.02,10.76-5.02,0,0-5.54-2.57-11.76-1.63s-10.76,5.02-10.76,5.02Z"/>
        </g>
      </g>
      <g>
        <g>
          <ellipse cx="126.85" cy="525.58" rx="7.93" ry="3.6"/>
          <ellipse cx="150.89" cy="525.58" rx="7.93" ry="3.6"/>
          <line class="st0" x1="128.02" y1="525.58" x2="143.53" y2="525.58"/>
        </g>
        <path class="st0" d="M113.16,512.04l5.43,12.87c.2.41.62.68,1.09.68h3.37"/>
        <path class="st0" d="M164.59,512.04l-5.43,12.87c-.2.41-.62.68-1.09.68h-3.37"/>
      </g>
    </g>
  </g>
  <g class="st5">
    <text class="st3" transform="translate(179.35 627.47)"><tspan class="st6" x="0" y="0">Goon</tspan><tspan class="st2" x="131.45" y="0">R</tspan><tspan class="st2" x="167.4" y="0">unner</tspan></text>
    <g>
      <g>
        <polygon class="st2" points="118.41 590.95 105.89 620.54 136.22 632.89 141.54 632.89 171.87 620.54 160.79 590.95 118.41 590.95"/>
        <path d="M179.35,589.27c0,8.34-26.23,15.93-40.47,15.93-12.86,0-40.47-7.58-40.47-15.93,0-5.24,7.82-9.86,18.67-12.56-.07.88-.11,1.41-.1,1.41l-.67,9.58c0,1.32.95,2.46,2.26,2.69l12.37,2.15c5.25.92,10.62.92,15.87,0l12.38-2.15c1.31-.23,2.26-1.36,2.26-2.69l-.76-10.33-.05-.65c10.83,2.71,18.71,7.32,18.71,12.55Z"/>
        <path class="st6" d="M161.42,582.06v10.33c0,1.32-.95,2.46-2.26,2.69l-12.38,2.15c-5.25.92-10.61.92-15.87,0l-12.37-2.15c-1.31-.23-2.26-1.36-2.26-2.69v-9.58s.04-.53.1-1.41c6.43-1.6,14.15-2.54,22.47-2.54s16.08.94,22.52,2.55l.05.65Z"/>
        <path d="M161.37,581.42c-6.44-1.61-14.18-2.55-22.52-2.55s-16.04.93-22.47,2.54c.33-4.28,1.33-16.84,1.33-16.84,6.33-3.02,12.99-4.75,21.88-4.75,8.21,0,14.29,1.55,20.39,4.17l1.38,17.44Z"/>
      </g>
      <g>
        <path class="st4" d="M135.69,611.68s-5.31,2.6-11.24,1.71c-5.93-.89-10.24-4.94-10.24-4.94,0,0,5.31-2.6,11.24-1.71s10.24,4.94,10.24,4.94Z"/>
        <path class="st4" d="M141.02,611.68s5.54,2.57,11.76,1.63c6.22-.93,10.76-5.02,10.76-5.02,0,0-5.54-2.57-11.76-1.63s-10.76,5.02-10.76,5.02Z"/>
      </g>
    </g>
  </g>
</svg>